<?xml version="1.0" encoding="UTF-8"?><svg xmlns="http://www.w3.org/2000/svg" xmlns:xlink="http://www.w3.org/1999/xlink" height="1833.0" preserveAspectRatio="xMidYMid meet" version="1.0" viewBox="-85.8 -27.8 4126.4 1833.0" width="4126.4" zoomAndPan="magnify"><g data-name="Layer 2"><g data-name="Layer 5"><g id="change1_1"><path d="M3911.5,1206.92s-1298.91,202.61-1395.34,199.34-723.41-146.74-723.41-146.74L2058.53,53,3627.57.65s367.75-28.46,392.26,290.25c19.62,150.37-45.76,268.73-45.76,268.73s66.61,140.75,62.56,353C4023.11,1203.59,3911.5,1206.92,3911.5,1206.92Z" fill="#db9947"/></g><g id="change2_1"><path d="M3974.07,559.63,2490.85,667.5s64.73-299.11-69.6-460.63S2058.53,53,2058.53,53L3627.57.65s367.75-28.46,392.26,290.25c19.62,150.37-45.76,268.73-45.76,268.73Z" fill="#d18643"/></g><g id="change3_1"><path d="M2516.16,1406.26S1823,1262,1792.75,1259.52s14.08-690.09,14.08-690.09-39.23-76-46.58-147.1S1779.86,61.94,2058.53,53C2375,42.41,2527.61,299.75,2516.16,474c1,31.83-28.29,97.51-25.31,193.46C2500.29,971.17,2516.16,1406.26,2516.16,1406.26Z" fill="#f8e1b7"/></g><g id="change1_2"><path d="M53.18,1643.79c156.91,93.16,393.9,161.37,663.57,143.61s814.05-155.05,849.91-186.1,26.72-158.37,26.72-158.37-72-115.39-503-165.65c-71.74-8.37-437.87,57.59-511.92,48.85C59.49,1264.84.12,1428.86.12,1428.86S-5.13,1534.46,53.18,1643.79Z" fill="#db9947"/></g><g id="change2_2"><path d="M53.18,1643.79c156.91,93.16,393.9,161.37,663.57,143.61,64.51-4.25,144.73-15.33,229.94-30.17,28.26-324.51-294.16-422.36-368.21-431.1C59.49,1264.84.12,1428.86.12,1428.86S-5.13,1534.46,53.18,1643.79Z" fill="#d18643"/></g><g id="change3_2"><path d="M1593.38,1442.93c-24.52,25.12-719.72,125.67-719.72,125.67s-225.55,81.84-485.42,49c-474-78.46-375-212.09-375-212.09s32.69-65.38,196.13-85,369.11,5.57,369.11,5.57,401.77-46,511.92-48.85S1629.92,1405.51,1593.38,1442.93Z" fill="#f8e1b7"/></g><g id="change3_3"><path d="M370.17,961.69c-29.42,53.94,14.71,196.13,24.52,225.55,0,0,274.58,215.74,853.17,191.23,0,0,186.32,19.61,740.39,152,0,0,68.64,44.13,88.25-210.84,0,0-387.35-161.81-617.8-210.84,0,0-259.88-73.55-588.39-107.87C870.31,1000.92,399.59,907.76,370.17,961.69Z" fill="#f8e1b7"/></g><g id="change1_3"><path d="M370.17,961.69c-29.42,53.94,14.71,196.13,24.52,225.55,0,0,274.58,215.74,853.17,191.23,0,0,186.32,19.61,740.39,152,0,0,68.64,44.13,88.25-210.84,0,0-529.08-85.1-759.53-134.13,0,0-245.63-8.07-451.57-62S468.24,1045.05,370.17,961.69Z" fill="#db9947"/></g><g id="change2_3"><path d="M370.17,961.69c-29.42,53.94,14.71,196.13,24.52,225.55,0,0,274.58,215.74,853.17,191.23,0,0,33.14-60.52,69.11-193,0,0-245.63-8.07-451.57-62S468.24,1045.05,370.17,961.69Z" fill="#d18643"/></g><g id="change1_4"><path d="M865.4,829.3s-34.32,122.58-24.51,161.81c0,0-1.64,52.31,944.87,248,344.28,87.34,624.17,223.62,647.06,212.18,11.44-9.81,57.83-156.22,55.71-169.51-14.71-26.15-309.05-133.79-627.77-222C1860.76,1059.76,1066.44,819.5,865.4,829.3Z" fill="#db9947"/></g><g id="change2_4"><path d="M865.4,829.3s-34.32,122.58-24.51,161.81c0,0-1.52,48.48,842.78,226.7,69.94-14.38,87.59-155.63,36.36-199.32C1482.46,950.26,1013.32,822.09,865.4,829.3Z" fill="#d18643"/></g></g></g></svg>